<svg width="512" height="512" viewBox="0 0 512 512" fill="none"
  xmlns="http://www.w3.org/2000/svg">
  <g clip-path="url(#clip0_3_105)">
    <rect width="512" height="512" fill="black"/>
    <path d="M127.247 85.9077C112.779 89.7845 99.5854 97.4017 88.9936 107.994C78.4017 118.585 70.7845 131.779 66.9077 146.247" stroke="white" stroke-width="40" stroke-linecap="round"/>
    <path d="M384.753 85.9077C399.221 89.7845 412.415 97.4017 423.006 107.994C433.598 118.585 441.215 131.779 445.092 146.247" stroke="white" stroke-width="40" stroke-linecap="round"/>
    <path fill-rule="evenodd" clip-rule="evenodd" d="M427 275C427 369.441 350.441 446 256 446C161.559 446 85 369.441 85 275C85 250.399 90.1949 227.012 99.5475 205.875L239.021 299.735C241.637 301.534 244.454 302.865 247.364 303.738C256.052 306.352 265.482 304.856 272.917 299.785C275.418 298.079 277.694 295.968 279.64 293.473L322.468 239.688C332.789 226.727 330.649 207.853 317.688 197.532C304.727 187.211 285.853 189.351 275.532 202.312L249.779 234.653L133.082 156.121C164.172 123.982 207.752 104 256 104C350.441 104 427 180.559 427 275Z" fill="white"/>
  </g>
  <defs>
    <clipPath id="clip0_3_105">
      <rect width="512" height="512" fill="white"/>
    </clipPath>
  </defs>
</svg>
